<?xml version="1.0" encoding="UTF-8" standalone="no"?>
<svg width="122px" height="38px" viewBox="0 0 122 38" version="1.1" xmlns="http://www.w3.org/2000/svg" xmlns:xlink="http://www.w3.org/1999/xlink">
    <!-- Generator: Sketch 49.2 (51160) - http://www.bohemiancoding.com/sketch -->
    <title>ebao_logo</title>
    <desc>Created with Sketch.</desc>
    <defs></defs>
    <g id="Page-1" stroke="none" stroke-width="1" fill="none" fill-rule="evenodd">
        <g id="ebao_logo" fill-rule="nonzero">
            <g id="Group-270" transform="translate(0.000000, 28.000000)" fill="#8C9293">
                <path d="M0.324945455,0.69895 L1.67476364,0.69895 L1.67476364,1.55365 L1.69949091,1.55365 C1.94894545,1.03985 2.49294545,0.56105 3.44203636,0.56105 C4.32058182,0.56105 4.92494545,0.89215 5.22094545,1.57605 C5.63476364,0.88095 6.24058182,0.56105 7.09367273,0.56105 C8.61076364,0.56105 9.14530909,1.59985 9.14530909,2.91235 L9.14530909,6.17505 L7.72130909,6.17505 L7.72130909,3.07125 C7.72130909,2.38735 7.50749091,1.79375 6.66676364,1.79375 C5.77730909,1.79375 5.44567273,2.50005 5.44567273,3.20915 L5.44567273,6.17505 L4.02458182,6.17505 L4.02458182,2.91235 C4.02458182,2.23755 3.73876364,1.79375 3.05076364,1.79375 C2.11476364,1.79375 1.74749091,2.45525 1.74749091,3.18605 L1.74749091,6.17505 L0.324945455,6.17505 L0.324945455,0.69895 Z" id="Fill-266"></path>
                <path d="M14.2521455,5.42136 L14.2172364,5.42136 C13.8128727,6.03806 13.1481455,6.31176 12.3903273,6.31176 C11.3357818,6.31176 10.3161455,5.75316 10.3161455,4.66956 C10.3161455,2.88876 12.4746909,2.76276 13.8965091,2.76276 L14.2521455,2.76276 L14.2521455,2.61506 C14.2521455,1.94166 13.7074182,1.58816 12.9474182,1.58816 C12.3554182,1.58816 11.8099636,1.81636 11.4310545,2.15936 L10.6834182,1.43906 C11.3117818,0.82376 12.2005091,0.56126 13.1023273,0.56126 C15.5321455,0.56126 15.5321455,2.25036 15.5321455,3.02526 L15.5321455,6.17526 L14.2521455,6.17526 L14.2521455,5.42136 Z M14.1685091,3.72176 L13.8725091,3.72176 C13.0899636,3.72176 11.7379636,3.77916 11.7379636,4.56666 C11.7379636,5.06786 12.2717818,5.28416 12.7357818,5.28416 C13.7074182,5.28416 14.1685091,4.79416 14.1685091,4.03046 L14.1685091,3.72176 Z" id="Fill-268"></path>
            </g>
            <polygon id="Fill-271" fill="#8C9293" points="17 26 18.5239828 26 18.5239828 31.6550353 20.8770311 29.2865374 22.8346549 29.2865374 20.2156506 31.8807109 23 35 20.977642 35 18.5512804 32.0837458 18.5239828 32.0837458 18.5239828 35 17 35"></polygon>
            <g id="Group-308" transform="translate(0.000000, 1.000000)">
                <path d="M25.115041,31.519782 C25.2117077,32.375962 25.8653231,32.895442 26.6788103,32.895442 C27.4052974,32.895442 27.8789641,32.556522 28.2418359,32.110302 L29.2843487,32.895442 C28.6047077,33.726462 27.7451179,34.052802 26.8245538,34.052802 C25.0659641,34.052802 23.6590923,32.834022 23.6590923,31.013622 C23.6590923,29.191742 25.0659641,27.972962 26.8245538,27.972962 C28.4478103,27.972962 29.552041,29.108122 29.552041,31.121662 L29.552041,31.519782 L25.115041,31.519782 Z M28.0960923,30.433462 C28.0841949,29.589122 27.5272462,29.059282 26.6178359,29.059282 C25.7575026,29.059282 25.2228615,29.600962 25.115041,30.433462 L28.0960923,30.433462 Z" id="Fill-272" fill="#8C9293"></path>
                <path d="M35.2326205,25.283506 C35.7672615,25.283506 36.1784667,25.657206 36.1784667,26.153006 C36.1784667,26.645846 35.7672615,27.021026 35.2326205,27.021026 C34.7002103,27.021026 34.3128,26.610326 34.3128,26.153006 C34.3128,25.693466 34.7002103,25.283506 35.2326205,25.283506 Z M34.5187744,33.908206 L35.9732359,33.908206 L35.9732359,28.119186 L34.5187744,28.119186 L34.5187744,33.908206 Z" id="Fill-274" fill="#8C9293"></path>
                <path d="M37.6449744,28.11889 L39.0258205,28.11889 L39.0258205,29.04611 L39.050359,29.04611 C39.3180513,28.46743 39.8616154,27.97311 40.832,27.97311 C42.3965128,27.97311 42.9542051,29.07127 42.9542051,30.25305 L42.9542051,33.90791 L41.4997436,33.90791 L41.4997436,30.97677 C41.4997436,30.33741 41.4506667,29.27625 40.4319487,29.27625 C39.4749487,29.27625 39.0986923,29.97555 39.0986923,30.74811 L39.0986923,33.90791 L37.6449744,33.90791 L37.6449744,28.11889 Z" id="Fill-276" fill="#8C9293"></path>
                <path d="M47.7041077,29.7221 C47.4252615,29.33582 47.0609026,29.13158 46.5641846,29.13158 C46.1767744,29.13158 45.7157487,29.31214 45.7157487,29.74578 C45.7157487,30.78474 48.854441,29.9404 48.854441,32.19592 C48.854441,33.5701 47.5330821,34.05258 46.3448256,34.05258 C45.4480564,34.05258 44.6739795,33.82244 44.0791077,33.16014 L45.0487487,32.25512 C45.4250051,32.66508 45.8124154,32.96626 46.4303385,32.96626 C46.8556718,32.96626 47.3999795,32.76276 47.3999795,32.3047 C47.3999795,31.1096 44.2612872,32.05088 44.2612872,29.84272 C44.2612872,28.5529 45.4250051,27.97274 46.6006205,27.97274 C47.3769282,27.97274 48.2008256,28.21472 48.6744923,28.85408 L47.7041077,29.7221 Z" id="Fill-278" fill="#8C9293"></path>
                <path d="M55.2896154,33.907984 L53.9080256,33.907984 L53.9080256,32.978544 L53.8842308,32.978544 C53.6165385,33.557224 53.0729744,34.053024 52.1025897,34.053024 C50.5388205,34.053024 49.9811282,32.954864 49.9811282,31.773824 L49.9811282,28.118964 L51.4348462,28.118964 L51.4348462,31.050104 C51.4348462,31.687984 51.4839231,32.749144 52.502641,32.749144 C53.459641,32.749144 53.836641,32.051324 53.836641,31.278024 L53.836641,28.118964 L55.2896154,28.118964 L55.2896154,33.907984 Z" id="Fill-280" fill="#8C9293"></path>
                <path d="M56.9383769,28.11889 L58.3906077,28.11889 L58.3906077,29.03427 L58.4151462,29.03427 C58.7304282,28.37123 59.3736333,27.97311 60.1365564,27.97311 C60.3172487,27.97311 60.4882744,28.01011 60.6570692,28.05747 L60.6570692,29.45607 C60.4154026,29.39687 60.1848897,29.34877 59.9551205,29.34877 C58.583941,29.34877 58.3906077,30.49429 58.3906077,30.80805 L58.3906077,33.90791 L56.9383769,33.90791 L56.9383769,28.11889 Z" id="Fill-282" fill="#8C9293"></path>
                <path d="M65.2870308,33.111152 L65.2513385,33.111152 C64.8386462,33.763092 64.1597487,34.052432 63.3841846,34.052432 C62.3044923,34.052432 61.2627231,33.461912 61.2627231,32.316392 C61.2627231,30.433832 63.4689538,30.300632 64.924159,30.300632 L65.2870308,30.300632 L65.2870308,30.144492 C65.2870308,29.432612 64.7278513,29.058912 63.9537744,29.058912 C63.3462615,29.058912 62.7900564,29.300152 62.4019026,29.662752 L61.6389795,28.901292 C62.2821846,28.250832 63.1901077,27.973332 64.1106718,27.973332 C66.5964923,27.973332 66.5964923,29.758952 66.5964923,30.578132 L66.5964923,33.908132 L65.2870308,33.908132 L65.2870308,33.111152 Z M65.2030051,31.314432 L64.8988769,31.314432 C64.0987744,31.314432 62.7179282,31.375112 62.7179282,32.207612 C62.7179282,32.737452 63.2622359,32.966112 63.7359026,32.966112 C64.7278513,32.966112 65.2030051,32.448112 65.2030051,31.640772 L65.2030051,31.314432 Z" id="Fill-284" fill="#8C9293"></path>
                <path d="M68.1575846,28.11889 L69.5391744,28.11889 L69.5391744,29.04611 L69.5637128,29.04611 C69.8306615,28.46743 70.3757128,27.97311 71.3460974,27.97311 C72.9113538,27.97311 73.4690462,29.07127 73.4690462,30.25305 L73.4690462,33.90791 L72.013841,33.90791 L72.013841,30.97677 C72.013841,30.33741 71.9655077,29.27625 70.9460462,29.27625 C69.9890462,29.27625 69.6127897,29.97555 69.6127897,30.74811 L69.6127897,33.90791 L68.1575846,33.90791 L68.1575846,28.11889 Z" id="Fill-286" fill="#8C9293"></path>
                <path d="M79.0899154,29.854856 C78.7515821,29.504836 78.3753256,29.276176 77.988659,29.276176 C76.9193769,29.276176 76.2798897,30.108676 76.2798897,31.013696 C76.2798897,31.917976 76.9193769,32.749736 77.988659,32.749736 C78.4363,32.749736 78.8482487,32.555856 79.1151974,32.207316 L80.0840949,33.244056 C79.4907103,33.834576 78.4957872,34.052876 77.988659,34.052876 C76.2300692,34.052876 74.8246846,32.833356 74.8246846,31.013696 C74.8246846,29.191816 76.2300692,27.973036 77.988659,27.973036 C78.7270436,27.973036 79.5390436,28.238696 80.0967359,28.854376 L79.0899154,29.854856 Z" id="Fill-288" fill="#8C9293"></path>
                <path d="M82.1194487,31.519782 C82.2161154,32.375962 82.8712179,32.895442 83.6832179,32.895442 C84.4104487,32.895442 84.8826282,32.556522 85.2469872,32.110302 L86.2880128,32.895442 C85.6106026,33.726462 84.7502692,34.052802 83.8289615,34.052802 C82.071859,34.052802 80.6657308,32.834022 80.6657308,31.013622 C80.6657308,29.191742 82.071859,27.972962 83.8289615,27.972962 C85.4514744,27.972962 86.5564487,29.108122 86.5564487,31.121662 L86.5564487,31.519782 L82.1194487,31.519782 Z M85.1005,30.433462 C85.0886026,29.589122 84.5309103,29.059282 83.6222436,29.059282 C82.7626538,29.059282 82.2287564,29.600962 82.1194487,30.433462 L85.1005,30.433462 Z" id="Fill-290" fill="#8C9293"></path>
                <path d="M92.6625846,31.519782 C92.7585077,32.375962 93.4128667,32.895442 94.2256103,32.895442 C94.9520974,32.895442 95.4257641,32.556522 95.7901231,32.110302 L96.8311487,32.895442 C96.1529949,33.726462 95.2919179,34.052802 94.3713538,34.052802 C92.6149949,34.052802 91.2073795,32.834022 91.2073795,31.013622 C91.2073795,29.191742 92.6149949,27.972962 94.3713538,27.972962 C95.9938667,27.972962 97.098841,29.108122 97.098841,31.121662 L97.098841,31.519782 L92.6625846,31.519782 Z M95.6436359,30.433462 C95.6317385,29.589122 95.0740462,29.059282 94.1638923,29.059282 C93.3043026,29.059282 92.7711487,29.600962 92.6625846,30.433462 L95.6436359,30.433462 Z" id="Fill-292" fill="#8C9293"></path>
                <path d="M102.089667,33.111152 L102.053974,33.111152 C101.641282,33.763092 100.963872,34.052432 100.188308,34.052432 C99.1086154,34.052432 98.0675897,33.461912 98.0675897,32.316392 C98.0675897,30.433832 100.273077,30.300632 101.728282,30.300632 L102.089667,30.300632 L102.089667,30.144492 C102.089667,29.432612 101.533462,29.058912 100.757897,29.058912 C100.151872,29.058912 99.5949231,29.300152 99.2060256,29.662752 L98.4431026,28.901292 C99.0848205,28.250832 99.9942308,27.973332 100.915538,27.973332 C103.399872,27.973332 103.399872,29.758952 103.399872,30.578132 L103.399872,33.908132 L102.089667,33.908132 L102.089667,33.111152 Z M102.005641,31.314432 L101.702256,31.314432 C100.902897,31.314432 99.5213077,31.375112 99.5213077,32.207612 C99.5213077,32.737452 100.065615,32.966112 100.540026,32.966112 C101.533462,32.966112 102.005641,32.448112 102.005641,31.640772 L102.005641,31.314432 Z" id="Fill-294" fill="#8C9293"></path>
                <path d="M108.065972,29.7221 C107.785638,29.33582 107.422767,29.13158 106.925305,29.13158 C106.537895,29.13158 106.076869,29.31214 106.076869,29.74578 C106.076869,30.78474 109.217049,29.9404 109.217049,32.19592 C109.217049,33.5701 107.894203,34.05258 106.707433,34.05258 C105.811408,34.05258 105.034356,33.82244 104.440972,33.16014 L105.409869,32.25512 C105.786869,32.66508 106.175023,32.96626 106.792203,32.96626 C107.216049,32.96626 107.761844,32.76276 107.761844,32.3047 C107.761844,31.1096 104.623151,32.05088 104.623151,29.84272 C104.623151,28.5529 105.786869,27.97274 106.962485,27.97274 C107.737305,27.97274 108.561203,28.21472 109.034869,28.85408 L108.065972,29.7221 Z" id="Fill-296" fill="#8C9293"></path>
                <path d="M109.555308,28.11889 L111.154026,28.11889 L112.778026,32.13487 L112.801077,32.13487 L114.257026,28.11889 L115.772462,28.11889 L113.021179,35.15111 C112.595846,36.23595 112.087974,36.80279 110.803051,36.80279 C110.426051,36.80279 110.050538,36.75395 109.686179,36.65775 L109.869846,35.35461 C110.099615,35.44045 110.354667,35.49965 110.609718,35.49965 C111.325051,35.49965 111.517641,35.24657 111.759308,34.64347 L112.039641,33.95527 L109.555308,28.11889 Z" id="Fill-298" fill="#8C9293"></path>
                <path d="M7.56297692,7.117394 C6.54723333,7.117394 5.69136154,7.465934 4.99238718,8.168194 C4.22202821,8.914854 3.8383359,9.863534 3.8383359,11.016454 L11.1165923,11.016454 C11.1165923,9.863534 10.7767718,8.924474 10.0986179,8.204454 C9.42566923,7.479254 8.57797692,7.117394 7.56297692,7.117394 Z M3.8383359,13.581294 C3.81602821,14.410094 4.15956667,15.139734 4.86151538,15.761334 C5.40359231,16.246774 6.00366923,16.547214 6.66025897,16.661174 C6.97851538,16.710014 7.31907949,16.730734 7.6804641,16.730734 C8.79213077,16.730734 9.68964359,16.376274 10.3700282,15.665134 L12.7510026,17.448534 C11.4802077,18.894494 9.78779744,19.616734 7.6804641,19.616734 C5.45861795,19.616734 3.67548974,18.937414 2.33702821,17.583214 C1.00005385,16.225314 0.332310256,14.419714 0.332310256,12.166414 C0.332310256,9.749574 0.978489744,7.843334 2.26861795,6.443994 C3.56320769,5.041694 5.39913077,4.338694 7.78159231,4.338694 C10.0733359,4.338694 11.8542333,5.319934 13.1250282,7.274274 C14.0322077,8.703954 14.4969513,10.807774 14.5185154,13.581294 L3.8383359,13.581294 Z" id="Fill-300" fill="#005C9C"></path>
                <path d="M24.9796333,10.589474 L20.1849667,10.622774 L20.1849667,16.303754 L24.9796333,16.303754 C25.8421974,16.303754 26.5917359,16.049194 27.2185821,15.534154 C27.8469154,15.022074 28.1621974,14.317594 28.1621974,13.430334 C28.1621974,12.540114 27.8469154,11.845254 27.2185821,11.341314 C26.5917359,10.841814 25.8421974,10.589474 24.9796333,10.589474 M24.1148385,3.434414 L20.1849667,3.434414 L20.1849667,7.703474 L24.1148385,7.703474 C24.8011718,7.703474 25.3990179,7.545114 25.9054026,7.226174 C26.5218385,6.838414 26.8311718,6.292294 26.8311718,5.586334 C26.8311718,4.857434 26.5218385,4.299474 25.9054026,3.911714 C25.3990179,3.588334 24.8011718,3.434414 24.1148385,3.434414 M31.3462487,15.822754 C30.5074795,18.171514 28.3503256,19.351074 24.8740436,19.351074 L16.4633,19.351074 L16.4633,0.389314 L24.5699154,0.389314 C26.0221462,0.389314 27.2773256,0.844414 28.3332231,1.756834 C29.3868897,2.670734 29.9148385,3.846594 29.9148385,5.284414 C29.9148385,6.536494 29.2679154,7.747134 27.9658897,8.910414 C30.4703,9.500934 31.7202744,11.068254 31.7202744,13.600534 C31.7202744,14.374574 31.5960949,15.118274 31.3462487,15.822754" id="Fill-302" fill="#005C9C"></path>
                <path d="M43.2273256,13.230904 C43.2273256,12.917884 42.9350949,12.607824 42.3528641,12.313304 C41.7691462,12.015824 41.1601462,11.870044 40.5184282,11.870044 C38.1419154,11.870044 36.9544026,12.695884 36.9544026,14.353484 C36.9544026,15.080904 37.3180179,15.636644 38.0534282,16.017744 C38.5992231,16.316704 39.2855564,16.465444 40.1072231,16.465444 C40.4968641,16.465444 41.0932231,16.304864 41.8933256,15.987404 C42.7767103,15.647004 43.2273256,15.342124 43.2273256,15.072024 L43.2273256,13.230904 Z M43.2273256,19.253764 L43.2273256,18.060144 C41.5445821,18.917804 39.994941,19.350704 38.5850949,19.350704 C36.9677872,19.350704 35.7170692,18.927424 34.8284795,18.083824 C33.9465821,17.241704 33.4996846,16.036244 33.4996846,14.461524 C33.4996846,12.756564 34.0886077,11.447504 35.271659,10.537304 C36.344659,9.718124 37.7745821,9.308904 39.5748128,9.308904 C40.7578641,9.308904 41.9751205,9.647824 43.2273256,10.332324 C43.1804795,7.905124 42.0197359,6.689304 39.7428641,6.689304 C38.5382487,6.689304 37.5113513,6.994184 36.6718385,7.598764 L35.5772744,5.604464 C36.6844795,4.620264 38.2385821,4.126684 40.2291718,4.126684 C42.0011462,4.126684 43.4541205,4.527764 44.5880949,5.325484 C45.8774795,6.237164 46.5229154,7.541044 46.5229154,9.226024 L46.5229154,19.253764 L43.2273256,19.253764 Z" id="Fill-304" fill="#005C9C"></path>
                <path d="M58.7047744,8.979678 C58.0942872,7.954778 57.0770564,7.439738 55.6657231,7.439738 C54.4120308,7.439738 53.4550308,7.907418 52.8014154,8.844258 C52.2288513,9.664918 51.9448,10.738658 51.9448,12.064738 C51.9448,13.366398 52.1864667,14.387598 52.6601333,15.117978 C53.2780564,16.119938 54.2893385,16.621658 55.698441,16.621658 C57.5224667,16.621658 58.6586718,15.847618 59.1130051,14.294358 C59.294441,13.697918 59.3881333,12.958658 59.3881333,12.064738 C59.3881333,10.738658 59.1568769,9.709318 58.7047744,8.979678 M55.6501077,19.616438 C53.3576205,19.616438 51.5633385,18.922318 50.275441,17.540738 C48.9763897,16.155458 48.3346718,14.316558 48.3346718,12.029958 C48.3346718,9.856578 49.0165436,8.047278 50.3929282,6.609458 C51.7648513,5.166458 53.5152615,4.447918 55.6501077,4.447918 C57.8102359,4.447918 59.5718,5.166458 60.9429795,6.609458 C62.3178769,8.047278 63.0019795,9.856578 63.0019795,12.029958 C63.0019795,14.296578 62.3364667,16.128818 61.0128769,17.522978 C59.6863128,18.917138 57.8979795,19.616438 55.6501077,19.616438" id="Fill-306" fill="#005C9C"></path>
            </g>
            <polygon id="Fill-309" fill="#8C9293" points="68.9560378 4.26256634 68.9560378 20 65.1030774 20 65.1030774 4.26256634 59 4.26256634 59 1 75 1 75 4.26256634"></polygon>
            <path d="M80.1317155,7.72813136 C79.135961,7.72813136 78.2832958,8.07032839 77.5942659,8.7598082 C76.8384611,9.49287998 76.4620263,10.4242953 76.4620263,11.5562337 L83.6392369,11.5562337 C83.6392369,10.4242953 83.3068295,9.50232491 82.637612,8.79540831 C81.9683946,8.08340599 81.1311389,7.72813136 80.1317155,7.72813136 Z M76.4620263,14.074397 C76.4363436,14.8881139 76.7702186,15.6044754 77.4651187,16.2147632 C78.00152,16.6913688 78.5995597,16.9863412 79.2430945,17.0982273 C79.5593585,17.1461784 79.8895644,17.1665214 80.252791,17.1665214 C81.3439384,17.1665214 82.2281566,16.8185121 82.9017768,16.1203139 L85.2499083,17.8712584 C83.9987945,19.2909038 82.3272184,20 80.2491221,20 C78.050684,20 76.2998585,19.3330427 74.9797683,18.0034874 C73.6611458,16.6702993 73,14.8975588 73,12.6852659 C73,10.3124092 73.6332617,8.44086022 74.9115258,7.06698634 C76.1868547,5.69020634 77.9993186,5 80.3481839,5 C82.609728,5 84.3686252,5.96338274 85.6219404,7.88215635 C86.5178993,9.28581808 86.9728497,11.3513514 87,14.074397 L76.4620263,14.074397 Z" id="Fill-310" fill="#8C9293"></path>
            <path d="M96.5261955,20 C94.2010666,20 92.3657993,19.3260318 91.0188701,17.9780954 C89.6666081,16.6330862 89,14.8065665 89,12.4978047 C89,10.3485706 89.7031763,8.55937165 91.1194327,7.13752561 C92.5394984,5.70982535 94.3412447,5 96.5261955,5 C98.4566925,5 100.103024,5.58030052 101.478141,6.74382867 L98.8665612,8.65669821 C98.2403305,8.1554298 97.4640178,7.90223436 96.5391467,7.90223436 C95.2409752,7.90223436 94.2422058,8.39398966 93.5466479,9.36798712 C92.9463197,10.2124598 92.6453938,11.2676847 92.6453938,12.5409796 C92.6453938,15.6129866 93.9519456,17.1467948 96.5734294,17.1467948 C97.6148617,17.1467948 98.4605016,16.8423749 99.1141585,16.2284125 L102,17.9254074 C100.626406,19.3062738 98.801805,20 96.5261955,20" id="Fill-312" fill="#8C9293"></path>
            <path d="M112.592881,20 L112.592881,11.0243016 C112.592881,10.228632 112.268743,9.54803543 111.627066,8.98629722 C110.979523,8.42304489 110.289445,8.13990461 109.556101,8.13990461 C108.84329,8.13990461 108.155413,8.42304489 107.489536,8.98629722 C106.732724,9.57453252 106.352852,10.2528579 106.352852,11.0243016 L106.352852,20 L103,20 L103,1.82148535 L106.352852,0 L106.352852,7.52290105 C107.314266,6.03830721 108.740622,5.29563177 110.642184,5.29563177 C112.159474,5.29563177 113.42156,5.75440987 114.428442,6.66666667 C115.474925,7.64933 116,8.93633129 116,10.5269135 L116,20 L112.592881,20 Z" id="Fill-314" fill="#8C9293"></path>
            <path d="M119.002647,1 C119.513929,1 120.007059,1.13064698 120.482037,1.38443249 C120.954746,1.64347391 121.324593,2.01138781 121.596117,2.49117757 C121.86386,2.97171818 122,3.47703667 122,3.99812289 C122,4.52146164 121.868398,5.01927168 121.604437,5.49605807 C121.338207,5.96833938 120.969873,6.33775497 120.493382,6.60055062 C120.022186,6.86860218 119.526031,7 119.002647,7 C118.479264,7 117.981596,6.86860218 117.508887,6.60055062 C117.036178,6.33775497 116.663305,5.96833938 116.401614,5.49605807 C116.132359,5.01927168 116,4.52146164 116,3.99812289 C116,3.47703667 116.138409,2.97171818 116.406908,2.49117757 C116.68297,2.01138781 117.047523,1.64347391 117.520232,1.38443249 C117.993697,1.13064698 118.486827,1 119.002647,1 Z M119.004916,1.59166562 C118.594983,1.59166562 118.19942,1.69227881 117.817471,1.9002628 C117.439304,2.10749593 117.144334,2.4025779 116.922728,2.7855087 C116.707173,3.17444625 116.595991,3.57764986 116.595991,4.00112627 C116.595991,4.42009761 116.707173,4.81879615 116.916677,5.20247779 C117.129207,5.58090352 117.424177,5.87973971 117.807639,6.09448129 C118.189588,6.30772119 118.584394,6.41509198 119.004916,6.41509198 C119.424682,6.41509198 119.825539,6.30772119 120.205975,6.09448129 C120.581873,5.87973971 120.8776,5.58090352 121.096937,5.20247779 C121.30871,4.81879615 121.419135,4.42009761 121.419135,4.00112627 C121.419135,3.57764986 121.30871,3.17444625 121.089374,2.7855087 C120.873062,2.4025779 120.572041,2.10749593 120.193874,1.9002628 C119.815707,1.69227881 119.417118,1.59166562 119.004916,1.59166562 Z M117.64654,5.6041797 L117.64654,2.42735578 L118.293962,2.42735578 C118.894491,2.42735578 119.238623,2.42735578 119.30745,2.43486422 C119.526787,2.4528845 119.689399,2.4949318 119.810412,2.56250782 C119.9284,2.62708047 120.028993,2.7284445 120.109164,2.86810161 C120.18631,3.00550619 120.227909,3.15417345 120.227909,3.32011012 C120.227909,3.55137029 120.153032,3.7480916 119.999496,3.91027406 C119.850498,4.0739582 119.640993,4.17231886 119.367957,4.21436616 C119.461742,4.25040671 119.539645,4.28794894 119.590319,4.33224878 C119.642506,4.37805031 119.71587,4.45763984 119.806631,4.57627331 C119.829321,4.61006132 119.904954,4.73770492 120.041094,4.96145664 L120.42153,5.6041797 L119.620572,5.6041797 L119.356612,5.08910024 C119.17131,4.74145914 119.023825,4.52221249 118.906593,4.42985859 C118.789361,4.3442623 118.640363,4.29770992 118.459599,4.29770992 L118.293962,4.29770992 L118.293962,5.6041797 L117.64654,5.6041797 Z M118.293962,3.79539482 L118.552628,3.79539482 C118.928526,3.79539482 119.161477,3.7833813 119.252237,3.75334752 C119.340729,3.72706795 119.411068,3.67450882 119.465524,3.60468027 C119.517711,3.53485171 119.544183,3.45300964 119.544183,3.36365912 C119.544183,3.27055437 119.51998,3.19622075 119.470062,3.12639219 C119.415606,3.05656363 119.345267,3.01001126 119.250725,2.97772494 C119.156183,2.94994369 118.923988,2.93417595 118.552628,2.93417595 L118.293962,2.93417595 L118.293962,3.79539482 Z" id="Fill-316" fill="#8C9293"></path>
        </g>
    </g>
</svg>